<?xml version="1.0" encoding="utf-8"?>
<!-- Generator: Adobe Illustrator 23.0.3, SVG Export Plug-In . SVG Version: 6.00 Build 0)  -->
<svg version="1.1" id="Layer_1" xmlns="http://www.w3.org/2000/svg" xmlns:xlink="http://www.w3.org/1999/xlink" x="0px" y="0px"
	 viewBox="0 0 612 792" style="enable-background:new 0 0 612 792;" xml:space="preserve">
<path d="M370.8,418.8l-0.1-21.2l-20.2-19.6l-0.7-0.7l0.7-0.8l17.4-17.9v-22.4l0-2.7l-0.1-19.8l-1.2-1.2H349l-3.5,0l-18.9,0.1
	l-20.3,21l-18.6-18.1h-22.4l-3.7,0l-18.7,0.1l-2.2,2.3v18.3l0,2.7l0.1,19.7l21,20.3l-18.1,18.7V420l0,1.8l0.1,20.6l0.4,0.3h21.3
	l22.4-0.1l20.3-21l18.6,18.1H349l0.8,0l20.9-0.1V420L370.8,418.8z M326.6,333.5h20.2v2.6h0.1v22.4l-7.2,7.4l-22.8-22.2L326.6,333.5z
	 M261.5,358.6v-22.1h3.6v-0.1h22.4l7.8,7.6l-23.6,24.3L261.5,358.6z M287.6,421.7h-22.4v0.1h-0.7V420h-0.1v-22.4l8-8.2l24,23.2
	L287.6,421.7z M306.8,399.5l-22.4-21.9l21.2-22.2l22.9,21.9L306.8,399.5z M349.7,418.8H349v0.1h-22.4l-8.2-8l21.8-22.4l9.5,9.1
	V418.8z"/>
<path d="M467.3,451.6l14.9-15.1l-0.4-28.2l0-1l1.1,0l24.9-0.4l15.9-15.9l1.9-1.9l13.9-14l0-1.7l-12.3-12.3l-2.5-2.5l-13.5-13.3
	l-29.2,0.4l-0.4-26l-15.9-15.9l-2.7-2.6l-13.3-13.2l-3.2,0L433.7,301l-1.9,1.9l-13.9,14l0.4,29.2l-26,0.4l-15.9,15.9l-1.3,1.3
	l-14.5,14.6l0,0.5l15,15l15.9,15.8l29.2-0.4l0.4,26l15.9,15.9l0.6,0.5l14.9,14.7l14-14L467.3,451.6z M496.4,360.1l14.3,14.3
	l-1.8,1.8l0.1,0.1L493,392.1l-10.4,0.1l-0.5-31.8L496.4,360.1z M432.7,331.8l15.6-15.6l2.6,2.6l0.1-0.1l15.9,15.9l0.1,10.9L433,346
	L432.7,331.8z M406.4,394.9L390.6,379l-0.1,0.1l-0.5-0.5l1.3-1.3l-0.1-0.1l15.9-15.9l11.4-0.1l0.5,33.4L406.4,394.9z M435.7,392.8
	l-0.3-31.3l30.7-0.7l0.7,31.6L435.7,392.8z M452.5,436.7l-0.5-0.5l-0.1,0.1L436,420.4l-0.1-11.4l31.3-0.5l0.3,13.2L452.5,436.7z"/>
<path d="M321,307.8l14.9-15.1l-0.4-28.2l0-1l1.1,0l24.9-0.4l15.9-15.9l1.9-1.9l13.9-14l0-1.7l-12.3-12.3l-2.5-2.5l-13.5-13.3
	l-29.2,0.4l-0.4-26l-15.9-15.9l-2.7-2.6l-13.3-13.2l-3.2,0l-12.9,12.9l-1.9,1.9l-13.9,14l0.4,29.2l-26,0.4l-15.9,15.9l-1.3,1.3
	l-14.5,14.6l0,0.5l15,15l15.9,15.8l29.2-0.4l0.4,26l15.9,15.9l0.6,0.5l14.9,14.7l14-14L321,307.8z M350,216.3l14.3,14.3l-1.8,1.8
	l0.1,0.1l-15.9,15.9l-10.4,0.1l-0.5-31.8L350,216.3z M286.3,188l15.6-15.6l2.6,2.6l0.1-0.1l15.9,15.9l0.1,10.9l-33.9,0.5L286.3,188z
	 M260.1,251.1l-15.9-15.9l-0.1,0.1l-0.5-0.5l1.3-1.3l-0.1-0.1l15.9-15.9l11.4-0.1l0.5,33.4L260.1,251.1z M289.4,249l-0.3-31.3
	l30.7-0.7l0.7,31.6L289.4,249z M306.1,293l-0.5-0.5l-0.1,0.1l-15.9-15.9l-0.1-11.4l31.3-0.5l0.3,13.2L306.1,293z"/>
<path d="M179.2,456.5l14.9-15.1l-0.4-28.2l0-1l1.1,0l24.9-0.4l15.9-15.9l1.9-1.9l13.9-14l0-1.7L239,366l-2.5-2.5L223,350.2
	l-29.2,0.4l-0.4-26l-15.9-15.9l-2.7-2.6L161.6,293l-3.2,0l-12.9,12.9l-1.9,1.9l-13.9,14l0.4,29.2l-26,0.4l-15.9,15.9l-1.3,1.3
	l-14.5,14.6l0,0.5l15,15l15.9,15.8l29.2-0.4l0.4,26L149,456l0.6,0.5l14.9,14.7l14-14L179.2,456.5z M208.2,365l14.3,14.3l-1.8,1.8
	l0.1,0.1L204.9,397l-10.4,0.1l-0.5-31.8L208.2,365z M144.5,336.7l15.6-15.6l2.6,2.6l0.1-0.1l15.9,15.9l0.1,10.9l-33.9,0.5
	L144.5,336.7z M118.3,399.8l-15.9-15.9l-0.1,0.1l-0.5-0.5l1.3-1.3l-0.1-0.1l15.9-15.9l11.4-0.1l0.5,33.4L118.3,399.8z M147.6,397.7
	l-0.3-31.3l30.7-0.7l0.7,31.6L147.6,397.7z M164.3,441.6l-0.5-0.5l-0.1,0.1l-15.9-15.9l-0.1-11.4l31.3-0.5l0.3,13.2L164.3,441.6z"/>
<path d="M328.4,595.2l14.9-15.1l-0.4-28.2l0-1l1.1,0l24.9-0.4l15.9-15.9l1.9-1.9l13.9-14l0-1.7l-12.3-12.3l-2.5-2.5l-13.5-13.3
	l-29.2,0.4l-0.4-26l-15.9-15.9l-2.7-2.6l-13.3-13.2l-3.2,0l-12.9,12.9l-1.9,1.9l-13.9,14l0.4,29.2l-26,0.4l-15.9,15.9l-1.3,1.3
	L221.7,522l0,0.5l15,15l15.9,15.8l29.2-0.4l0.4,26l15.9,15.9l0.6,0.5l14.9,14.7l14-14L328.4,595.2z M357.4,503.7l14.3,14.3l-1.8,1.8
	l0.1,0.1L354,535.8l-10.4,0.1l-0.5-31.8L357.4,503.7z M293.7,475.4l15.6-15.6l2.6,2.6l0.1-0.1l15.9,15.9l0.1,10.9l-33.9,0.5
	L293.7,475.4z M267.5,538.5l-15.9-15.9l-0.1,0.1l-0.5-0.5l1.3-1.3l-0.1-0.1l15.9-15.9l11.4-0.1l0.5,33.4L267.5,538.5z M296.7,536.4
	l-0.3-31.3l30.7-0.7l0.7,31.6L296.7,536.4z M313.5,580.4l-0.5-0.5l-0.1,0.1L297,564.1l-0.1-11.4l31.3-0.5l0.3,13.2L313.5,580.4z"/>
<rect x="349.9" y="376.7" transform="matrix(0.6952 -0.7188 0.7188 0.6952 -164.3125 366.8354)" width="1.1" height="1"/>
</svg>
