<?xml version="1.0" encoding="utf-8"?>
<!-- Generator: Adobe Illustrator 23.0.3, SVG Export Plug-In . SVG Version: 6.00 Build 0)  -->
<svg version="1.1" id="Layer_1" xmlns="http://www.w3.org/2000/svg" xmlns:xlink="http://www.w3.org/1999/xlink" x="0px" y="0px"
	 viewBox="0 0 511 508" style="enable-background:new 0 0 511 508;" xml:space="preserve">
<path d="M317.8,297.8l-0.1-21.2L297.5,257l-0.7-0.7l0.7-0.8l17.4-17.9v-22.4v-2.7l-0.1-19.8l-1.2-1.2H296h-3.5l-18.9,0.1l-20.3,21
	l-18.6-18.1h-22.4h-3.7l-18.7,0.1l-2.2,2.3v18.3v2.7l0.1,19.7l21,20.3l-18.1,18.7V299v1.8l0.1,20.6l0.4,0.3h21.3l22.4-0.1l20.3-21
	l18.6,18.1H296h0.8l20.9-0.1V299L317.8,297.8z M273.6,212.5h20.2v2.6h0.1v22.4l-7.2,7.4l-22.8-22.2L273.6,212.5z M208.5,237.6v-22.1
	h3.6v-0.1h22.4l7.8,7.6l-23.6,24.3L208.5,237.6z M234.6,300.7h-22.4v0.1h-0.7V299h-0.1v-22.4l8-8.2l24,23.2L234.6,300.7z
	 M253.8,278.5l-22.4-21.9l21.2-22.2l22.9,21.9L253.8,278.5z M296.7,297.8H296v0.1h-22.4l-8.2-8l21.8-22.4l9.5,9.1L296.7,297.8
	L296.7,297.8z"/>
<path d="M414.3,330.6l14.9-15.1l-0.4-28.2v-1h1.1l24.9-0.4l15.9-15.9l1.9-1.9l13.9-14v-1.7l-12.3-12.3l-2.5-2.5l-13.5-13.3
	l-29.2,0.4l-0.4-26l-15.9-15.9l-2.7-2.6L396.7,167h-3.2l-12.8,13l-1.9,1.9l-13.9,14l0.4,29.2l-26,0.4l-15.9,15.9l-1.3,1.3
	l-14.5,14.6v0.5l15,15l15.9,15.8l29.2-0.4l0.4,26l15.9,15.9l0.6,0.5l14.9,14.7l14-14L414.3,330.6z M443.4,239.1l14.3,14.3l-1.8,1.8
	l0.1,0.1l-16,15.8l-10.4,0.1l-0.5-31.8L443.4,239.1z M379.7,210.8l15.6-15.6l2.6,2.6l0.1-0.1l15.9,15.9l0.1,10.9l-34,0.5
	L379.7,210.8z M353.4,273.9L337.6,258l-0.1,0.1l-0.5-0.5l1.3-1.3l-0.1-0.1l15.9-15.9l11.4-0.1l0.5,33.4L353.4,273.9z M382.7,271.8
	l-0.3-31.3l30.7-0.7l0.7,31.6L382.7,271.8z M399.5,315.7l-0.5-0.5l-0.1,0.1L383,299.4l-0.1-11.4l31.3-0.5l0.3,13.2L399.5,315.7z"/>
<path d="M268,186.8l14.9-15.1l-0.4-28.2v-1h1.1l24.9-0.4l15.9-15.9l1.9-1.9l13.9-14v-1.7l-12.3-12.3l-2.5-2.5l-13.5-13.3l-29.2,0.4
	l-0.4-26L266.4,39l-2.7-2.6l-13.3-13.2h-3.2l-12.9,12.9l-1.9,1.9l-13.9,14l0.4,29.2l-26,0.4L177,97.5l-1.3,1.3l-14.5,14.6v0.5l15,15
	l15.9,15.8l29.2-0.4l0.4,26l15.9,15.9l0.6,0.5l14.9,14.7l14-14L268,186.8z M297,95.3l14.3,14.3l-1.8,1.8l0.1,0.1l-15.9,15.9
	l-10.4,0.1l-0.5-31.8L297,95.3z M233.3,67l15.6-15.6l2.6,2.6l0.1-0.1l15.9,15.9l0.1,10.9l-33.9,0.5L233.3,67z M207.1,130.1
	l-15.9-15.9l-0.1,0.1l-0.5-0.5l1.3-1.3l-0.1-0.1l15.9-15.9l11.4-0.1l0.5,33.4L207.1,130.1z M236.4,128l-0.3-31.3l30.7-0.7l0.7,31.6
	L236.4,128z M253.1,172l-0.5-0.5l-0.1,0.1l-15.9-15.9l-0.1-11.4l31.3-0.5l0.3,13.2L253.1,172z"/>
<path d="M126.2,335.5l14.9-15.1l-0.4-28.2v-1h1.1l24.9-0.4l15.9-15.9l1.9-1.9l13.9-14v-1.7L186,245l-2.5-2.5L170,229.2l-29.2,0.4
	l-0.4-26l-15.9-15.9l-2.7-2.6L108.6,172h-3.2l-12.9,12.9l-1.9,1.9l-13.9,14l0.4,29.2l-26,0.4l-15.9,15.9l-1.3,1.3l-14.5,14.6v0.5
	l15,15l15.9,15.8l29.2-0.4l0.4,26L96,335l0.6,0.5l14.9,14.7l14-14L126.2,335.5z M155.2,244l14.3,14.3l-1.8,1.8l0.1,0.1L151.9,276
	l-10.4,0.1l-0.5-31.8L155.2,244z M91.5,215.7l15.6-15.6l2.6,2.6l0.1-0.1l15.9,15.9l0.1,10.9l-33.9,0.5L91.5,215.7z M65.3,278.8
	l-15.9-15.9l-0.1,0.1l-0.5-0.5l1.3-1.3l-0.1-0.1l15.9-15.9l11.4-0.1l0.5,33.4L65.3,278.8z M94.6,276.7l-0.3-31.3l30.7-0.7l0.7,31.6
	L94.6,276.7z M111.3,320.6l-0.5-0.5l-0.1,0.1l-15.9-15.9l-0.1-11.4l31.3-0.5l0.3,13.2L111.3,320.6z"/>
<path d="M275.4,474.2l14.9-15.1l-0.4-28.2v-1h1.1l24.9-0.4l15.9-15.9l1.9-1.9l13.9-14V396l-12.3-12.3l-2.5-2.5l-13.5-13.3l-29.2,0.4
	l-0.4-26l-15.9-15.9l-2.7-2.6l-13.3-13.2h-3.2l-12.9,12.9l-1.9,1.9l-13.9,14l0.4,29.2l-26,0.4l-15.9,15.9l-1.3,1.3L168.7,401v0.5
	l15,15l15.9,15.8l29.2-0.4l0.4,26l15.9,15.9l0.6,0.5l14.9,14.7l14-14L275.4,474.2z M304.4,382.7l14.3,14.3l-1.8,1.8l0.1,0.1
	l-16,15.9l-10.4,0.1l-0.5-31.8L304.4,382.7z M240.7,354.4l15.6-15.6l2.6,2.6l0.1-0.1l15.9,15.9l0.1,10.9l-33.9,0.5L240.7,354.4z
	 M214.5,417.5l-15.9-15.9l-0.1,0.1l-0.5-0.5l1.3-1.3l-0.1-0.1l15.9-15.9l11.4-0.1l0.5,33.4L214.5,417.5z M243.7,415.4l-0.3-31.3
	l30.7-0.7l0.7,31.6L243.7,415.4z M260.5,459.4l-0.5-0.5l-0.1,0.1L244,443.1l-0.1-11.4l31.3-0.5l0.3,13.2L260.5,459.4z"/>
<rect x="296.9" y="255.7" transform="matrix(0.6952 -0.7188 0.7188 0.6952 -93.4701 291.8867)" width="1.1" height="1"/>
</svg>
